<svg xmlns="http://www.w3.org/2000/svg" width="16.657" height="20" viewBox="0 0 16.657 20"><defs><style>.a{fill:rgba(51,51,51,0.78);}</style></defs><path class="a" d="M6.653,2.986a.833.833,0,0,0-.82.844v7.722a1.664,1.664,0,1,0,1.666,0V3.831a.833.833,0,0,0-.846-.844Zm6.663,0a.833.833,0,0,0-.82.844V6.554a1.667,1.667,0,1,0,1.666,0V3.831a.833.833,0,0,0-.846-.844Zm6.663,0a.833.833,0,0,0-.82.844V14.884a1.664,1.664,0,1,0,1.666,0V3.831a.833.833,0,0,0-.846-.844ZM12.5,11.209V22.153a.833.833,0,1,0,1.666,0V11.209a3.02,3.02,0,0,1-1.666,0Zm-6.663,5v5.947a.833.833,0,1,0,1.666,0V16.206a3.312,3.312,0,0,1-.833.117A3.312,3.312,0,0,1,5.833,16.206Zm13.326,3.331v2.616a.833.833,0,1,0,1.666,0V19.538a3.02,3.02,0,0,1-1.666,0Z" transform="translate(-5 -2.986)"/></svg>