<svg xmlns="http://www.w3.org/2000/svg" fill="#333333C7" width="16" height="16" viewBox="0 0 16 16"><defs><style>.a{fill:#333;}</style></defs><path fill="#333333C7" class="a" d="M9.04,3a1.274,1.274,0,0,0-.905.375l-5.76,5.76a1.28,1.28,0,0,0,0,1.81l1,1A2.529,2.529,0,0,1,4.03,10.79L9.79,5.03a2.542,2.542,0,0,1,1.81-.75h3.485A2.549,2.549,0,0,0,12.88,3ZM11.6,5.56a1.274,1.274,0,0,0-.905.375L4.935,11.7a1.28,1.28,0,0,0,0,1.81l5.12,5.12a1.28,1.28,0,0,0,1.81,0l5.76-5.76A1.274,1.274,0,0,0,18,11.96V8.12a2.56,2.56,0,0,0-2.56-2.56Zm3.84,1.28a1.28,1.28,0,1,1-1.28,1.28A1.28,1.28,0,0,1,15.44,6.84Z" transform="translate(-2 -3)"/></svg>