<svg xmlns="http://www.w3.org/2000/svg" width="20" height="20" viewBox="0 0 20 20"><defs><style>.a{fill:#fff;}</style></defs><path class="a" d="M10.8,3a1.592,1.592,0,0,0-1.131.469l-7.2,7.2a1.6,1.6,0,0,0,0,2.263l1.25,1.25a3.161,3.161,0,0,1,.819-1.444l7.2-7.2A3.177,3.177,0,0,1,14,4.6h4.356A3.186,3.186,0,0,0,15.6,3ZM14,6.2a1.592,1.592,0,0,0-1.131.469l-7.2,7.2a1.6,1.6,0,0,0,0,2.263l6.4,6.4a1.6,1.6,0,0,0,2.263,0l7.2-7.2A1.592,1.592,0,0,0,22,14.2V9.4a3.2,3.2,0,0,0-3.2-3.2Zm4.8,1.6a1.6,1.6,0,1,1-1.6,1.6A1.6,1.6,0,0,1,18.8,7.8Z" transform="translate(-2 -3)"/></svg>