<svg xmlns="http://www.w3.org/2000/svg" width="19.146" height="18.5" viewBox="0 0 19.146 18.5"><defs><style>.a{fill:#ff13dc;opacity:0;}.b{fill:#fff;}</style></defs><g transform="translate(1)"><rect class="a" width="18" height="18"/><path class="b" d="M19.965,11.624l-2.473-7a2.878,2.878,0,0,0-2.561-1.5H5.966A.621.621,0,0,0,5.345,2.5H1.621A.621.621,0,0,0,1,3.121v9.931a.621.621,0,0,0,.621.621H5.345a.621.621,0,0,0,.621-.621v-.3c1.58.729,4.455,3,4.742,5.78A2.065,2.065,0,0,0,12.744,20.5a2.361,2.361,0,0,0,1.969-2.444,13.33,13.33,0,0,0-.5-3.774l4.066.006a1.862,1.862,0,0,0,1.682-2.664Zm-1.68,1.428h-5.9a9.342,9.342,0,0,1,1.084,5c-.032.745-.349,1.2-.728,1.2a.853.853,0,0,1-.8-.745c-.3-3.645-4.2-6.359-5.983-7.076V4.362l9.3-.012a1.143,1.143,0,0,1,1.081.765l2.493,7.049a.621.621,0,0,1-.56.889Z" transform="translate(-2 -2)"/></g></svg>