<svg xmlns="http://www.w3.org/2000/svg" width="18" height="14.627" viewBox="0 0 18 14.627"><defs><style>.a{fill:rgba(51,51,51,0.78);}</style></defs><path class="a" d="M20,6.167a7.372,7.372,0,0,1-2.121.582A3.7,3.7,0,0,0,19.5,4.706a7.4,7.4,0,0,1-2.345.9,3.694,3.694,0,0,0-6.388,2.526,3.734,3.734,0,0,0,.1.841A10.483,10.483,0,0,1,3.252,5.111a3.7,3.7,0,0,0,1.143,4.93A3.685,3.685,0,0,1,2.722,9.58v.046a3.693,3.693,0,0,0,2.962,3.621,3.694,3.694,0,0,1-.973.129,3.76,3.76,0,0,1-.694-.066,3.7,3.7,0,0,0,3.45,2.565A7.451,7.451,0,0,1,2,17.4,10.455,10.455,0,0,0,7.66,19.063,10.434,10.434,0,0,0,18.166,8.556q0-.24-.01-.478A7.515,7.515,0,0,0,20,6.167Z" transform="translate(-1.999 -4.436)"/></svg>